#!OML:ASF F:\VICON\USERDATA\INSTALL\rory3\rory3.ASF
:FULLY-SPECIFIED
:DEGREES
515
root -0.940403 15.2622 3.52841 183.549 -11.0859 -181.818
lowerback 2.31147 -1.64605 2.19932
upperback -4.54335 -2.27254 -0.66805
thorax -6.12494 -1.30831 -1.74515
lowerneck -12.4046 1.05835 -3.27573
upperneck 41.1846 -7.91531 9.14157
head 17.9841 -4.62835 2.72835
rclavicle -1.27222e-014 -1.39149e-015
rhumerus -102.084 -53.0985 60.9783
rradius 11.1585
rwrist 59.4289
rhand 7.11574 -3.3111
rfingers 7.12502
rthumb 32.3859 -30.4389
lclavicle -1.27222e-014 -1.39149e-015
lhumerus -23.4805 27.6694 19.5786
lradius 14.6678
lwrist -54.0368
lhand 4.77506 27.4304
lfingers 7.12502
lthumb 30.1554 54.9894
rfemur 316.504 8.21813 -333.736
rtibia 61.2987
rfoot 153.942 -201.108
rtoes 32.8774
lfemur -56.3876 -8.30077 7.17342
ltibia 43.628
lfoot -50.8067 1.27953
ltoes 40.8379
516
root -0.995557 15.2577 3.38782 183.839 -9.32199 -181.724
lowerback 2.23942 -1.43356 2.81114
upperback -4.7698 -1.98378 -0.791452
thorax -6.33789 -1.21223 -2.23676
lowerneck -12.5096 1.44102 -3.16834
upperneck 41.4496 -7.60664 9.34623
head 18.1483 -4.50483 2.85803
rclavicle -8.1129e-015 7.95139e-016
rhumerus -104.742 -54.291 65.1214
rradius 11.0967
rwrist 62.0609
rhand 5.70713 -2.61221
rfingers 7.12502
rthumb 31.0442 -30.0052
lclavicle -8.1129e-015 7.95139e-016
lhumerus -21.4052 25.1716 22.2824
lradius 14.966
lwrist -51.3415
lhand 5.72464 29.0132
lfingers 7.12502
lthumb 31.0609 56.403
rfemur 316.787 9.24633 -333.545
rtibia 61.1781
rfoot 153.867 -200.652
rtoes 32.0133
lfemur -60.358 -17.4539 17.3182
ltibia 41.9559
lfoot -59.8824 -17.0837
ltoes 49.4805
517
root -1.04572 15.2838 3.27058 184.17 -7.70002 -181.218
lowerback 1.97178 -1.2953 3.91007
upperback -4.95605 -1.76941 -0.776621
thorax -6.40878 -1.17365 -2.85782
lowerneck -12.39 1.82584 -3.26825
upperneck 41.4893 -7.19589 9.6639
head 18.1137 -4.35544 3.0984
rclavicle -1.37907e-015 -7.55382e-015
rhumerus -106.313 -55.9416 67.9318
rradius 11.0892
rwrist 64.1227
rhand 4.11333 -2.10125
rfingers 7.12502
rthumb 29.5239 -29.7737
lclavicle -1.37907e-015 -7.55382e-015
lhumerus -19.3757 22.5392 24.7884
lradius 15.4028
lwrist -48.6386
lhand 5.52176 30.6413
lfingers 7.12502
lthumb 30.8675 58.068
rfemur 317.105 9.92378 -332.899
rtibia 60.8265
rfoot 154.676 -200.475
rtoes 29.4408
lfemur -61.8855 -13.7526 18.8422
ltibia 41.1217
lfoot -55.5012 -17.3244
ltoes 50.5057
518
root -1.11636 15.2759 3.1583 184.615 -6.03248 -180.612
lowerback 1.64263 -1.10768 5.23173
upperback -5.06588 -1.48597 -0.787917
thorax -6.35975 -1.10969 -3.63924
lowerneck -11.7498 2.05459 -3.8007
upperneck 40.9333 -6.87284 10.3492
head 17.6239 -4.25075 3.56222
rclavicle 7.0817e-016 -7.55382e-015
rhumerus -102.569 -58.4079 64.3172
rradius 11.1056
rwrist 63.0468
rhand 2.79132 -1.78142
rfingers 7.12502
rthumb 28.2611 -29.6698
lclavicle 7.0817e-016 -7.55382e-015
lhumerus -17.4685 25.3016 25.6995
lradius 15.0183
lwrist -52.2921
lhand 3.59708 29.434
lfingers 7.12502
lthumb 29.031 57.1924
rfemur 317.024 10.491 -332.276
rtibia 60.5633
rfoot 155.725 -200.106
rtoes 27.6194
lfemur -63.2762 -9.78556 20.572
ltibia 40.6144
lfoot -51.9138 -16.3523
ltoes 50.9014
519
root -1.18922 15.2941 3.05591 185.07 -4.26508 -179.934
lowerback 1.51135 -0.884076 6.75591
upperback -5.21498 -1.1415 -0.808801
thorax -6.45744 -1.03386 -4.54562
lowerneck -11.1514 2.25473 -4.14383
upperneck 40.4614 -6.52937 10.702
head 17.171 -4.14328 3.83114
rclavicle 6.99474e-015 -7.15625e-015
rhumerus -102.334 -60.5609 65.0881
rradius 11.1386
rwrist 64.976
rhand 1.95939 -1.15066
rfingers 7.12502
rthumb 27.4658 -29.168
lclavicle 6.99474e-015 -7.15625e-015
lhumerus -15.3503 27.9682 26.8527
lradius 14.8467
lwrist -55.6329
lhand 1.77653 29.0521
lfingers 7.12502
lthumb 27.2909 57.0971
rfemur 317.214 10.7834 -331.607
rtibia 59.9324
rfoot 156.462 -199.125
rtoes 26.9861
lfemur -65.1434 -5.84912 21.6886
ltibia 40.6037
lfoot -48.6813 -14.3947
ltoes 50.4912
520
root -1.26061 15.3401 2.9639 185.338 -2.54664 -178.699
lowerback 1.8521 -0.720107 8.87656
upperback -5.4818 -0.798898 -0.60788
thorax -6.95919 -1.01382 -5.54804
lowerneck -11.1784 -4.72808 -2.66625
upperneck 42.126 -2.79594 6.68825
head 17.6019 1.519 3.78872
rclavicle 1.59525e-014 1.03368e-014
rhumerus -105.502 -62.5945 70.0101
rradius 11.1868
rwrist 69.582
rhand 1.91902 -0.933369
rfingers 7.12502
rthumb 27.4271 -28.9568
lclavicle 1.59525e-014 1.03368e-014
lhumerus -13.2174 27.1746 28.6618
lradius 15.4875
lwrist -55.0102
lhand 0.991811 29.97
lfingers 7.12502
lthumb 26.54 58.1308
rfemur 317.939 10.7104 -330.238
rtibia 58.9812
rfoot 157.183 -197.91
rtoes 26.0233
lfemur -67.2589 -2.43874 22.3148
ltibia 40.7083
lfoot -44.2346 -15.727
ltoes 51.0003
521
root -1.33254 15.4009 2.8844 185.591 -0.715549 -177.366
lowerback 2.32323 -0.551648 11.1492
upperback -5.65609 -0.403629 -0.3792
thorax -7.42268 -0.98485 -6.61374
lowerneck -11.7021 -4.40991 -2.43414
upperneck 42.7263 -2.10681 6.14991
head 18.0268 1.77221 3.67136
rclavicle 5.14355e-015 -9.14409e-015
rhumerus -109.799 -64.7052 76.1126
rradius 11.1616
rwrist 74.4261
rhand 2.80368 -1.4409
rfingers 7.12502
rthumb 28.2729 -29.3274
lclavicle 5.14355e-015 -9.14409e-015
lhumerus -10.913 26.8739 30.2513
lradius 16.074
lwrist -54.3872
lhand 0.437968 30.6025
lfingers 7.12502
lthumb 26.0098 58.8423
rfemur 318.863 10.685 -328.796
rtibia 57.8125
rfoot 157.811 -196.496
rtoes 25.016
lfemur -69.4242 0.719841 22.5131
ltibia 40.9991
lfoot -41.6422 -14.5546
ltoes 52.2816
522
root -1.42063 15.4449 2.78958 185.796 1.34466 -176.318
lowerback 2.85494 -0.707313 13.1276
upperback -5.65716 0.222695 -0.250982
thorax -7.71927 -0.544067 -7.6861
lowerneck -12.3817 -4.13661 -2.37111
upperneck 43.1996 -1.55498 5.77683
head 18.4537 1.94033 3.62928
rclavicle 7.00716e-015 -7.55382e-015
rhumerus -112.833 -66.8341 80.7512
rradius 11.1545
rwrist 77.7986
rhand 4.30353 -2.21865
rfingers 7.12502
rthumb 29.7054 -29.8589
lclavicle 7.00716e-015 -7.55382e-015
lhumerus -8.33596 30.2862 31.3095
lradius 15.7068
lwrist -58.8025
lhand -1.36405 28.7468
lfingers 7.12502
lthumb 24.2832 57.2289
rfemur 319.907 10.863 -327.76
rtibia 56.6784
rfoot 158.473 -194.862
rtoes 24.2052
lfemur -71.1116 3.63866 22.5166
ltibia 41.4231
lfoot -40.8552 -12.8299
ltoes 51.4944
523
root -1.50411 15.5083 2.68475 186.182 3.51921 -176.719
lowerback 3.03758 -0.358023 13.4834
upperback -5.67938 0.713177 -0.5104
thorax -7.74129 -0.343069 -8.22055
lowerneck -12.8103 -3.88194 -2.41812
upperneck 43.4571 -1.04535 5.46572
head 18.693 2.06889 3.60373
rclavicle -1.68967e-015 -8.54774e-015
rhumerus -115.559 -68.7847 85.1769
rradius 11.2157
rwrist 80.4697
rhand 6.20403 -3.15693
rfingers 7.12502
rthumb 31.5177 -30.4584
lclavicle -1.68967e-015 -8.54774e-015
lhumerus -5.67357 32.0616 32.5944
lradius 15.3887
lwrist -62.8116
lhand -3.13167 26.6549
lfingers 7.12502
lthumb 22.5876 55.3535
rfemur 320.518 11.2237 -328.415
rtibia 55.718
rfoot 159.251 -193.505
rtoes 23.3211
lfemur -72.5402 5.97491 20.8825
ltibia 41.794
lfoot -40.1177 -14.3702
ltoes 52.494
524
root -1.56517 15.6392 2.59101 186 5.68027 -178.366
lowerback 3.45113 -0.0119941 12.399
upperback -5.56121 1.05812 -1.11051
thorax -7.73697 -0.148116 -8.30031
lowerneck -12.8796 -3.65796 -2.59361
upperneck 43.4554 -0.665514 5.38288
head 18.6844 2.14895 3.65576
rclavicle -1.90088e-015 -2.98177e-015
rhumerus -116.181 -70.6547 87.377
rradius 11.3538
rwrist 81.7084
rhand 8.23474 -4.14018
rfingers 7.12502
rthumb 33.4502 -31.0443
lclavicle -1.90088e-015 -2.98177e-015
lhumerus -2.684 31.6707 34.2576
lradius 15.3642
lwrist -64.2491
lhand -3.72185 26.0576
lfingers 7.12502
lthumb 22.021 54.824
rfemur 321.682 11.7857 -330.399
rtibia 54.6009
rfoot 159.855 -192.471
rtoes 23.1558
lfemur -73.2296 7.31045 17.7979
ltibia 42.1432
lfoot -40.3644 -14.4049
ltoes 52.74
525
root -1.61456 15.7894 2.48586 185.67 7.60774 -180.49
lowerback 3.64917 0.318716 10.8275
upperback -5.47077 1.30995 -1.99964
thorax -7.66229 0.030591 -8.40308
lowerneck -12.762 -3.59876 -2.53141
upperneck 43.5783 -0.562647 5.35726
head 18.7207 2.19678 3.65776
rclavicle -1.33434e-014 2.80286e-014
rhumerus -124.845 -70.7186 97.7279
rradius 11.6055
rwrist 85.4256
rhand 9.69227 -4.86388
rfingers 7.12502
rthumb 34.8344 -31.4584
lclavicle -1.33434e-014 2.80286e-014
lhumerus 0.870766 33.0478 36.2702
lradius 15.0253
lwrist -67.2156
lhand -4.11195 25.8939
lfingers 7.12502
lthumb 21.6465 54.7039
rfemur 323.005 12.7709 -332.966
rtibia 53.3584
rfoot 160.353 -192.066
rtoes 23.7393
lfemur -73.9399 8.25109 14.182
ltibia 42.3071
lfoot -40.5814 -13.1313
ltoes 52.9998
526
root -1.65406 15.9678 2.37416 185.008 9.32393 -182.994
lowerback 3.93459 0.588696 8.89593
upperback -5.41756 1.48002 -3.06474
thorax -7.71102 0.189574 -8.48385
lowerneck -12.4347 -3.63585 -2.40561
upperneck 43.7782 -0.611418 5.44522
head 18.7594 2.23516 3.68525
rclavicle -3.02898e-014 1.59028e-015
rhumerus -141.455 -67.1028 116.276
rradius 12.0815
rwrist 93.6816
rhand 10.8923 -4.81388
rfingers 7.12502
rthumb 35.9722 -31.1372
lclavicle -3.02898e-014 1.59028e-015
lhumerus 4.28074 32.6657 38.2421
lradius 14.7327
lwrist -67.9797
lhand -4.46999 26.7112
lfingers 7.12502
lthumb 21.3026 55.5604
rfemur 324.729 13.9828 -335.903
rtibia 51.7824
rfoot 161.157 -192.216
rtoes 23.3173
lfemur -74.4149 8.7755 10.1823
ltibia 42.5335
lfoot -39.8052 -10.1022
ltoes 53.0753
527
root -1.69245 16.1405 2.25176 184.177 11.093 -185.506
lowerback 4.27378 0.802605 6.84152
upperback -5.33557 1.59213 -4.08381
thorax -7.78964 0.343639 -8.43596
lowerneck -12.2501 -3.59452 -2.19527
upperneck 44.0771 -0.542885 5.52291
head 18.8929 2.33336 3.72708
rclavicle -1.07468e-014 1.10574e-014
rhumerus -145.193 -67.1698 120.88
rradius 12.2663
rwrist 96.1618
rhand 12.1062 -5.76252
rfingers 7.12502
rthumb 37.1212 -31.7956
lclavicle -1.07468e-014 1.10574e-014
lhumerus 7.34241 32.149 40.0696
lradius 14.4792
lwrist -68.2204
lhand -4.23299 27.5257
lfingers 7.12502
lthumb 21.5302 56.349
rfemur 326.514 15.8851 -338.857
rtibia 50.0164
rfoot 162.191 -192.859
rtoes 23.7348
lfemur -74.5438 9.29377 6.11319
ltibia 42.6539
lfoot -37.871 -7.18078
ltoes 53.1323
